<?xml version="1.0" standalone="no"?><!DOCTYPE svg PUBLIC "-//W3C//DTD SVG 1.1//EN" "http://www.w3.org/Graphics/SVG/1.1/DTD/svg11.dtd"><svg t="1763514016664" class="icon" viewBox="0 0 1024 1024" version="1.1" xmlns="http://www.w3.org/2000/svg" p-id="32627" xmlns:xlink="http://www.w3.org/1999/xlink" width="200" height="200"><path d="M832.7168 496.2816c-16.9472 0-30.72 13.7728-30.72 30.72v281.1392c0 22.0672-17.9712 40.0384-40.0384 40.0384H223.8976c-22.0672 0-40.0384-17.9712-40.0384-40.0384V230.9632c0-22.0672 17.9712-40.0384 40.0384-40.0384h325.8368c16.9472 0 30.72-13.7728 30.72-30.72s-13.7728-30.72-30.72-30.72H223.8976c-55.9616 0-101.4784 45.5168-101.4784 101.4784v577.1776c0 55.9616 45.5168 101.4784 101.4784 101.4784h538.0608c55.9616 0 101.4784-45.5168 101.4784-101.4784v-281.1392c0-16.9472-13.7728-30.72-30.72-30.72z" fill="#ffffff" p-id="32628"></path><path d="M909.2608 210.5856l-73.728-73.728c-25.5488-25.5488-67.072-25.5488-92.5696 0l-313.344 313.2928c-3.8912 3.8912-6.656 8.7552-8.0384 14.08l-40.5504 157.8496a30.67392 30.67392 0 0 0 29.7472 38.3488c2.1504 0 4.3008-0.2048 6.4-0.6656l163.4304-34.9696c5.7856-1.2288 11.1104-4.1472 15.3088-8.3456l313.2928-313.2928c25.5488-25.4976 25.5488-67.0208 0.0512-92.5696z m-350.3616 356.0448l-106.0352 22.6816 26.112-101.632L700.928 265.728l81.7664 77.1584-223.7952 223.744z m306.8928-306.8928l-39.68 39.68-81.7664-77.1584 41.984-41.984a4.096 4.096 0 0 1 5.7344 0l73.728 73.728c1.5872 1.6384 1.5872 4.1984 0 5.7344z" fill="#ffffff" p-id="32629"></path></svg>