<?xml version="1.0" standalone="no"?><!DOCTYPE svg PUBLIC "-//W3C//DTD SVG 1.1//EN" "http://www.w3.org/Graphics/SVG/1.1/DTD/svg11.dtd"><svg t="1763446705187" class="icon" viewBox="0 0 1024 1024" version="1.1" xmlns="http://www.w3.org/2000/svg" p-id="22005" xmlns:xlink="http://www.w3.org/1999/xlink" width="200" height="200"><path d="M855.04 160.128l-189.248 23.488a7.936 7.936 0 0 0-4.672 13.44l54.656 54.72-153.472 153.536a8 8 0 0 0 0 11.264l45.12 45.12a8 8 0 0 0 11.264 0l153.6-153.6 54.72 54.72c4.672 4.672 12.672 1.92 13.44-4.736l23.424-189.056a7.872 7.872 0 0 0-8.896-8.96zM416.64 562.304a8 8 0 0 0-11.328 0l-153.536 153.6-54.656-54.72a7.936 7.936 0 0 0-13.504 4.736l-23.488 189.056a8 8 0 0 0 8.896 8.96l189.184-23.552a7.936 7.936 0 0 0 4.672-13.44l-54.656-54.72 153.6-153.6a8 8 0 0 0 0-11.328l-45.248-44.992z" fill="#ffffff" p-id="22006"></path></svg>